<svg xmlns="http://www.w3.org/2000/svg" viewBox="0 0 640 400" role="img" aria-label="Lower jaw anatomy color reference">
  <rect width="640" height="400" fill="#0f172a"/>
  <text x="320" y="36" text-anchor="middle" fill="#e2e8f0" font-family="system-ui,sans-serif" font-size="18" font-weight="600">Lower jaw (mandible)</text>
  <path d="M80 220 Q320 300 560 220 Q540 160 320 130 Q100 160 80 220Z" fill="#fff6ee" fill-opacity="0.38" stroke="#f1f5f9" stroke-width="1.5"/>
  <path d="M100 205 Q320 255 540 205 Q520 185 320 175 Q120 185 100 205Z" fill="#e06b6b"/>
  <g fill="#fffaf5">
    <rect x="150" y="175" width="18" height="32" rx="5"/><rect x="190" y="168" width="18" height="36" rx="5"/>
    <rect x="230" y="162" width="18" height="40" rx="5"/><rect x="270" y="158" width="20" height="44" rx="5"/>
    <rect x="310" y="156" width="22" height="46" rx="5"/><rect x="350" y="158" width="20" height="44" rx="5"/>
    <rect x="390" y="162" width="18" height="40" rx="5"/><rect x="430" y="168" width="18" height="36" rx="5"/>
    <rect x="470" y="175" width="18" height="32" rx="5"/>
  </g>
  <path d="M120 198 Q320 218 520 198" stroke="#ffe033" stroke-width="4" fill="none"/>
  <path d="M130 210 Q320 228 510 210" stroke="#e82222" stroke-width="3" fill="none"/>
  <path d="M140 218 Q320 236 500 218" stroke="#2a4fd4" stroke-width="3" fill="none"/>
  <text x="320" y="360" text-anchor="middle" fill="#94a3b8" font-family="system-ui,sans-serif" font-size="13">Inferior alveolar nerve · arteries · veins</text>
</svg>
