<svg xmlns="http://www.w3.org/2000/svg" viewBox="0 0 800 500" role="img">
  <defs>
    <linearGradient id="clinicalBg" x1="0" y1="0" x2="0" y2="1">
      <stop offset="0%" stop-color="#334155" />
      <stop offset="100%" stop-color="#0f172a" />
    </linearGradient>
  </defs>
  <rect width="800" height="500" fill="url(#clinicalBg)" />
  <text x="400" y="40" text-anchor="middle" fill="#cbd5e1" font-family="Segoe UI, Arial, sans-serif" font-size="16">
    Impacted crown teaching view - yellow zone alignment
  </text>
  <path d="M120 340 Q400 140 680 340 Q400 430 120 340 Z" fill="#fb7185" stroke="#fecdd3" stroke-width="3" opacity="0.9" />
  <g fill="#f1f5f9" stroke="#94a3b8" stroke-width="2">
    <rect x="200" y="230" width="40" height="55" rx="5" />
    <rect x="248" y="215" width="40" height="62" rx="5" />
    <rect x="296" y="205" width="40" height="68" rx="5" />
    <rect x="344" y="200" width="40" height="72" rx="5" opacity="0.5" />
    <rect x="392" y="198" width="44" height="76" rx="5" transform="rotate(18 414 236)" />
    <rect x="448" y="210" width="40" height="66" rx="5" />
    <rect x="496" y="222" width="40" height="58" rx="5" />
    <rect x="544" y="238" width="40" height="50" rx="5" />
  </g>
  <ellipse cx="300" cy="255" rx="75" ry="50" fill="none" stroke="#38bdf8" stroke-width="3" stroke-dasharray="10 6" />
  <ellipse cx="520" cy="275" rx="90" ry="55" fill="rgba(250,204,21,0.15)" stroke="#facc15" stroke-width="4" stroke-dasharray="10 6" />
  <text x="520" y="350" text-anchor="middle" fill="#fde047" font-family="Segoe UI, Arial, sans-serif" font-size="14" font-weight="600">
    Impacted third molar region
  </text>
</svg>
